<svg width="16" height="16" viewBox="0 0 16 16" fill="none" xmlns="http://www.w3.org/2000/svg">
<path d="M10.3998 7.19333C11.0465 6.74666 11.4998 6.01333 11.4998 5.33333C11.4998 3.82666 10.3332 2.66666 8.83317 2.66666H5.33317C4.9665 2.66666 4.6665 2.96666 4.6665 3.33333V11.3333C4.6665 11.7 4.9665 12 5.33317 12H9.1865C10.5665 12 11.8265 10.8733 11.8332 9.48666C11.8398 8.46666 11.2665 7.59333 10.3998 7.19333ZM6.6665 4.33333H8.6665C9.21984 4.33333 9.6665 4.78 9.6665 5.33333C9.6665 5.88666 9.21984 6.33333 8.6665 6.33333H6.6665V4.33333ZM8.99984 10.3333H6.6665V8.33333H8.99984C9.55317 8.33333 9.99984 8.78 9.99984 9.33333C9.99984 9.88666 9.55317 10.3333 8.99984 10.3333Z" fill="#8FA4B5"/>
</svg>
