<svg width="16" height="16" viewBox="0 0 16 16" fill="none" xmlns="http://www.w3.org/2000/svg">
<path d="M5.80015 10.6L3.20015 8L5.80015 5.4C6.06015 5.14 6.06015 4.72667 5.80015 4.46667C5.54015 4.20667 5.12682 4.20667 4.86682 4.46667L1.80682 7.52667C1.54682 7.78667 1.54682 8.20667 1.80682 8.46667L4.86682 11.5333C5.12682 11.7933 5.54015 11.7933 5.80015 11.5333C6.06015 11.2733 6.06015 10.86 5.80015 10.6ZM10.2001 10.6L12.8001 8L10.2001 5.4C9.94015 5.14 9.94015 4.72667 10.2001 4.46667C10.4601 4.20667 10.8735 4.20667 11.1335 4.46667L14.1935 7.52667C14.4535 7.78667 14.4535 8.20667 14.1935 8.46667L11.1335 11.5333C10.8735 11.7933 10.4601 11.7933 10.2001 11.5333C9.94015 11.2733 9.94015 10.86 10.2001 10.6Z" fill="#8FA4B5"/>
</svg>
