<svg width="16" height="16" viewBox="0 0 16 16" fill="none" xmlns="http://www.w3.org/2000/svg">
<path d="M12.5877 3.44214C11.6534 2.49471 10.1331 2.49508 9.19859 3.44214L7.50403 5.16054C7.36005 5.30654 7.36005 5.54322 7.50403 5.68922C7.64801 5.83522 7.8814 5.83522 8.02537 5.68922L9.71994 3.97082C10.0317 3.65489 10.4483 3.48065 10.893 3.48065C11.3378 3.48065 11.7544 3.65489 12.0662 3.97101C12.3779 4.28713 12.5497 4.70963 12.5497 5.16073C12.5497 5.61164 12.3779 6.03413 12.0662 6.35026L9.85046 8.59771C9.20338 9.25351 8.15092 9.25351 7.50384 8.59771C7.35986 8.4517 7.12647 8.4517 6.9825 8.59771C6.83852 8.74371 6.83852 8.98057 6.9825 9.12639C7.44964 9.60011 8.06335 9.83696 8.67706 9.83696C9.29077 9.83696 9.90447 9.60011 10.3716 9.12639L12.5877 6.87912C13.0388 6.42186 13.2873 5.81148 13.2873 5.16073C13.2873 4.50978 13.0388 3.8996 12.5877 3.44214Z" fill="#8FA4B5"/>
<path fill-rule="evenodd" clip-rule="evenodd" d="M9.15343 3.39614C10.1129 2.42371 11.6739 2.4233 12.6332 3.39615C13.0965 3.86588 13.3516 4.49264 13.3516 5.16072C13.3516 5.82861 13.0965 6.45556 12.6332 6.92511C12.6332 6.92511 12.6332 6.92511 12.6332 6.92511L10.4171 9.17237C9.93745 9.65882 9.30719 9.902 8.67723 9.902C8.04727 9.902 7.41702 9.65882 6.93732 9.17237C6.76826 9.00113 6.76832 8.72309 6.93732 8.55171C7.10634 8.38031 7.38034 8.38031 7.54937 8.55171C8.17139 9.18212 9.18325 9.18212 9.80527 8.55172C9.80528 8.55171 9.80529 8.55171 9.80529 8.5517L12.021 6.30427C12.3206 6.00045 12.4858 5.59454 12.4858 5.16072C12.4858 4.72672 12.3206 4.32081 12.021 4.017C11.7214 3.71318 11.3211 3.54569 10.8931 3.54569C10.4653 3.54569 10.0651 3.71318 9.76545 4.01682L8.0709 5.73521C7.90187 5.90661 7.62787 5.90661 7.45885 5.73521C7.28982 5.5638 7.28982 5.28595 7.45885 5.11455L9.15343 3.39614ZM9.72011 3.97082C10.0319 3.65488 10.4485 3.48065 10.8931 3.48065C11.338 3.48065 11.7546 3.65488 12.0664 3.97101C12.3781 4.28713 12.5499 4.70963 12.5499 5.16072C12.5499 5.61164 12.3781 6.03413 12.0664 6.35025L9.85063 8.5977C9.20356 9.25351 8.15109 9.25351 7.50402 8.5977C7.36004 8.4517 7.12665 8.4517 6.98267 8.5977C6.83869 8.74371 6.83869 8.98057 6.98267 9.12638C7.44982 9.6001 8.06352 9.83696 8.67723 9.83696C9.29094 9.83696 9.90465 9.6001 10.3718 9.12638L12.5879 6.87912C13.039 6.42185 13.2875 5.81148 13.2875 5.16072C13.2875 4.50978 13.039 3.89959 12.5879 3.44214C11.6536 2.4947 10.1332 2.49508 9.19876 3.44214L7.5042 5.16054C7.36022 5.30654 7.36022 5.54321 7.5042 5.68922C7.64818 5.83522 7.88157 5.83522 8.02555 5.68922L9.72011 3.97082Z" fill="#8FA4B5"/>
<path d="M7.75031 10.5761L6.31642 12.0302C6.00468 12.3463 5.58804 12.5205 5.1432 12.5205C4.69855 12.5205 4.28173 12.3463 3.96999 12.0302C3.3231 11.3742 3.3231 10.3067 3.96999 9.65072L6.05575 7.53563C6.36748 7.21969 6.78412 7.04546 7.22896 7.04546C7.67362 7.04546 8.09025 7.21969 8.40199 7.53563C8.54597 7.68163 8.77936 7.68163 8.92334 7.53563C9.06732 7.38962 9.06732 7.15295 8.92334 7.00695C7.98923 6.0597 6.46888 6.05951 5.53421 7.00695L3.44845 9.12223C2.99753 9.57949 2.74902 10.1899 2.74902 10.8406C2.74902 11.4912 2.99753 12.1016 3.44864 12.5588C3.89956 13.0163 4.50147 13.2683 5.14302 13.2683C5.78475 13.2683 6.38666 13.0163 6.83758 12.5588L8.27147 11.1048C8.41545 10.9588 8.41545 10.7221 8.27147 10.5761C8.12749 10.4301 7.89429 10.4301 7.75031 10.5761Z" fill="#8FA4B5"/>
<path fill-rule="evenodd" clip-rule="evenodd" d="M5.48903 6.96097L5.48904 6.96095C6.44875 5.98813 8.0097 5.98831 8.96886 6.96096C9.13789 7.13237 9.13789 7.41022 8.96886 7.58162C8.79984 7.75303 8.52584 7.75303 8.35681 7.58162C8.05721 7.27799 7.65693 7.1105 7.22913 7.1105C6.80115 7.1105 6.40087 7.27799 6.10127 7.58162C6.10126 7.58163 6.10126 7.58163 6.10126 7.58164L4.01551 9.69672C3.39367 10.3273 3.39367 11.3536 4.01551 11.9842C4.31511 12.288 4.71557 12.4555 5.14337 12.4555C5.57136 12.4555 5.97164 12.288 6.27124 11.9842L7.70513 10.5301C7.87416 10.3587 8.14797 10.3587 8.317 10.5301C8.48602 10.7015 8.48602 10.9794 8.317 11.1508L6.88311 12.6048C6.88311 12.6048 6.88311 12.6048 6.88311 12.6048C6.42007 13.0746 5.80181 13.3333 5.14319 13.3333C4.48474 13.3333 3.86648 13.0746 3.40345 12.6048C2.94024 12.1353 2.68506 11.5083 2.68506 10.8406C2.68506 10.1727 2.94024 9.54579 3.40327 9.07625C3.40327 9.07625 3.40327 9.07624 3.40328 9.07624L5.48903 6.96097ZM3.44863 9.12223L5.53439 7.00695C6.46905 6.05952 7.9894 6.0597 8.92351 7.00695C9.06749 7.15296 9.06749 7.38963 8.92351 7.53563C8.77953 7.68164 8.54614 7.68164 8.40216 7.53563C8.09043 7.2197 7.67379 7.04546 7.22913 7.04546C6.78429 7.04546 6.36766 7.2197 6.05592 7.53563L3.97016 9.65073C3.32327 10.3067 3.32327 11.3742 3.97016 12.0302C4.2819 12.3463 4.69872 12.5205 5.14337 12.5205C5.58822 12.5205 6.00485 12.3463 6.31659 12.0302L7.75048 10.5761C7.89446 10.4301 8.12766 10.4301 8.27164 10.5761C8.41562 10.7221 8.41562 10.9588 8.27164 11.1048L6.83775 12.5588C6.38683 13.0163 5.78492 13.2683 5.14319 13.2683C4.50165 13.2683 3.89974 13.0163 3.44881 12.5588C2.9977 12.1016 2.7492 11.4912 2.7492 10.8406C2.7492 10.1899 2.9977 9.5795 3.44863 9.12223Z" fill="#8FA4B5"/>
</svg>
