<svg width="16" height="16" viewBox="0 0 16 16" fill="none" xmlns="http://www.w3.org/2000/svg">
<path d="M2.66667 8.66666C3.03333 8.66666 3.33333 8.36666 3.33333 8C3.33333 7.63333 3.03333 7.33333 2.66667 7.33333C2.3 7.33333 2 7.63333 2 8C2 8.36666 2.3 8.66666 2.66667 8.66666ZM2.66667 11.3333C3.03333 11.3333 3.33333 11.0333 3.33333 10.6667C3.33333 10.3 3.03333 10 2.66667 10C2.3 10 2 10.3 2 10.6667C2 11.0333 2.3 11.3333 2.66667 11.3333ZM2.66667 6C3.03333 6 3.33333 5.7 3.33333 5.33333C3.33333 4.96666 3.03333 4.66666 2.66667 4.66666C2.3 4.66666 2 4.96666 2 5.33333C2 5.7 2.3 6 2.66667 6ZM5.33333 8.66666H13.3333C13.7 8.66666 14 8.36666 14 8C14 7.63333 13.7 7.33333 13.3333 7.33333H5.33333C4.96667 7.33333 4.66667 7.63333 4.66667 8C4.66667 8.36666 4.96667 8.66666 5.33333 8.66666ZM5.33333 11.3333H13.3333C13.7 11.3333 14 11.0333 14 10.6667C14 10.3 13.7 10 13.3333 10H5.33333C4.96667 10 4.66667 10.3 4.66667 10.6667C4.66667 11.0333 4.96667 11.3333 5.33333 11.3333ZM4.66667 5.33333C4.66667 5.7 4.96667 6 5.33333 6H13.3333C13.7 6 14 5.7 14 5.33333C14 4.96666 13.7 4.66666 13.3333 4.66666H5.33333C4.96667 4.66666 4.66667 4.96666 4.66667 5.33333ZM2.66667 8.66666C3.03333 8.66666 3.33333 8.36666 3.33333 8C3.33333 7.63333 3.03333 7.33333 2.66667 7.33333C2.3 7.33333 2 7.63333 2 8C2 8.36666 2.3 8.66666 2.66667 8.66666ZM2.66667 11.3333C3.03333 11.3333 3.33333 11.0333 3.33333 10.6667C3.33333 10.3 3.03333 10 2.66667 10C2.3 10 2 10.3 2 10.6667C2 11.0333 2.3 11.3333 2.66667 11.3333ZM2.66667 6C3.03333 6 3.33333 5.7 3.33333 5.33333C3.33333 4.96666 3.03333 4.66666 2.66667 4.66666C2.3 4.66666 2 4.96666 2 5.33333C2 5.7 2.3 6 2.66667 6ZM5.33333 8.66666H13.3333C13.7 8.66666 14 8.36666 14 8C14 7.63333 13.7 7.33333 13.3333 7.33333H5.33333C4.96667 7.33333 4.66667 7.63333 4.66667 8C4.66667 8.36666 4.96667 8.66666 5.33333 8.66666ZM5.33333 11.3333H13.3333C13.7 11.3333 14 11.0333 14 10.6667C14 10.3 13.7 10 13.3333 10H5.33333C4.96667 10 4.66667 10.3 4.66667 10.6667C4.66667 11.0333 4.96667 11.3333 5.33333 11.3333ZM4.66667 5.33333C4.66667 5.7 4.96667 6 5.33333 6H13.3333C13.7 6 14 5.7 14 5.33333C14 4.96666 13.7 4.66666 13.3333 4.66666H5.33333C4.96667 4.66666 4.66667 4.96666 4.66667 5.33333Z" fill="#8FA4B5"/>
</svg>
