<svg width="16" height="16" viewBox="0 0 16 16" fill="none" xmlns="http://www.w3.org/2000/svg">
<path d="M4.77984 11.3333C5.11984 11.3333 5.43317 11.14 5.57984 10.84L6.5265 8.94666C6.61984 8.76 6.6665 8.56 6.6665 8.35333V5.33333C6.6665 4.96666 6.3665 4.66666 5.99984 4.66666H3.33317C2.9665 4.66666 2.6665 4.96666 2.6665 5.33333V8C2.6665 8.36666 2.9665 8.66666 3.33317 8.66666H4.6665L3.97984 10.04C3.67984 10.6333 4.11317 11.3333 4.77984 11.3333ZM11.4465 11.3333C11.7865 11.3333 12.0998 11.14 12.2465 10.84L13.1932 8.94666C13.2865 8.76 13.3332 8.56 13.3332 8.35333V5.33333C13.3332 4.96666 13.0332 4.66666 12.6665 4.66666H9.99984C9.63317 4.66666 9.33317 4.96666 9.33317 5.33333V8C9.33317 8.36666 9.63317 8.66666 9.99984 8.66666H11.3332L10.6465 10.04C10.3465 10.6333 10.7798 11.3333 11.4465 11.3333Z" fill="#8FA4B5"/>
</svg>
