<svg width="24" height="24" viewBox="0 0 24 24" fill="none" xmlns="http://www.w3.org/2000/svg">
<rect width="24" height="24" rx="4" fill="url(#paint0_linear)"/>
<path d="M11.9965 5C8.129 5 5 8.13251 5 12C5 15.8675 8.129 19 11.9965 19C15.864 19 19 15.8675 19 12C19 8.13251 15.864 5 11.9965 5ZM12 6.42449C12.5845 7.26449 13.0395 8.19899 13.337 9.2H10.663C10.9605 8.19899 11.4155 7.26449 12 6.42449ZM6.58199 13.4C6.46649 12.952 6.39998 12.483 6.39998 12C6.39998 11.517 6.46649 11.048 6.58199 10.6H8.94449C8.88848 11.0585 8.84999 11.524 8.84999 12C8.84999 12.476 8.88848 12.9415 8.948 13.4H6.58199ZM7.1525 14.8H9.21749C9.44497 15.675 9.76349 16.515 10.1835 17.2955C8.8955 16.8545 7.8245 15.9585 7.1525 14.8ZM9.21749 9.2H7.1525C7.8245 8.04149 8.8955 7.14551 10.1835 6.70451C9.76349 7.48499 9.44501 8.32499 9.21749 9.2ZM12 17.5755C11.419 16.7355 10.964 15.801 10.663 14.8H13.337C13.036 15.801 12.581 16.7355 12 17.5755ZM13.638 13.4H10.362C10.2955 12.9415 10.25 12.476 10.25 12C10.25 11.524 10.2955 11.0585 10.362 10.6H13.638C13.7045 11.0585 13.75 11.524 13.75 12C13.75 12.476 13.7045 12.9415 13.638 13.4ZM16.844 9.2H14.779C14.5515 8.32499 14.233 7.48499 13.813 6.70799C15.101 7.14899 16.172 8.04149 16.844 9.2ZM13.8165 17.292C14.2365 16.5115 14.555 15.675 14.7825 14.8H16.8475C16.172 15.9585 15.101 16.851 13.8165 17.292ZM15.052 13.4C15.108 12.9415 15.15 12.476 15.15 12C15.15 11.524 15.1115 11.0585 15.052 10.6H17.4145C17.53 11.048 17.6 11.517 17.6 12C17.6 12.483 17.5335 12.952 17.4145 13.4H15.052Z" fill="white"/>
<defs>
<linearGradient id="paint0_linear" x1="-2.23517e-07" y1="24" x2="24" y2="-2.23517e-07" gradientUnits="userSpaceOnUse">
<stop stop-color="#08BEE5"/>
<stop offset="1" stop-color="#3FE8E0"/>
</linearGradient>
</defs>
</svg>
